<svg xmlns="http://www.w3.org/2000/svg" viewBox="0 0 750 500"><g id="freepik--Floor--inject-17"><polygon points="54.31 382.18 134.48 381.94 214.65 381.85 375 381.68 535.35 381.85 615.52 381.94 695.69 382.18 615.52 382.43 535.35 382.51 375 382.68 214.65 382.51 134.48 382.42 54.31 382.18" style="fill:#263238"></polygon></g><g id="freepik--Shadow--inject-17"><ellipse cx="375" cy="442.29" rx="294.39" ry="22.27" style="fill:#ebebeb"></ellipse></g><g id="freepik--Folder--inject-17"><rect x="355.41" y="264.72" width="277.6" height="179.48" style="fill:#4B7FF3"></rect><polygon points="545.53 246.13 633.01 246.13 633.01 264.72 540.5 264.72 545.53 246.13" style="fill:#4B7FF3"></polygon><g style="opacity:0.1"><rect x="355.41" y="264.72" width="277.6" height="179.48"></rect><polygon points="545.53 246.13 633.01 246.13 633.01 264.72 540.5 264.72 545.53 246.13"></polygon></g><path d="M398.93,146.7a19.51,19.51,0,0,1,0-8.82,17,17,0,0,1,.5,4.41A17.45,17.45,0,0,1,398.93,146.7Z" style="fill:#263238"></path><path d="M407.91,149.29a17.42,17.42,0,0,1,1.77-4.07,17.13,17.13,0,0,1,2.63-3.57,17,17,0,0,1-1.77,4.07A17.29,17.29,0,0,1,407.91,149.29Z" style="fill:#263238"></path><path d="M414.4,156a17.38,17.38,0,0,1,3.56-2.64A17.88,17.88,0,0,1,422,151.6,19.55,19.55,0,0,1,414.4,156Z" style="fill:#263238"></path><path d="M416.65,165.09a17.79,17.79,0,0,1,4.4-.5,17,17,0,0,1,4.41.5,17.85,17.85,0,0,1-4.4.5A17.46,17.46,0,0,1,416.65,165.09Z" style="fill:#263238"></path><path d="M414.06,174.08a17.4,17.4,0,0,1,4.07,1.76,17.72,17.72,0,0,1,3.57,2.64,19.78,19.78,0,0,1-7.64-4.4Z" style="fill:#263238"></path><path d="M407.33,180.56a17.82,17.82,0,0,1,2.64,3.57,17.35,17.35,0,0,1,1.77,4.06,19.51,19.51,0,0,1-4.41-7.63Z" style="fill:#263238"></path><path d="M398.25,182.81a19.51,19.51,0,0,1,0,8.82,17,17,0,0,1-.5-4.41A17.45,17.45,0,0,1,398.25,182.81Z" style="fill:#263238"></path><path d="M389.27,180.22a17.42,17.42,0,0,1-1.77,4.07,17.09,17.09,0,0,1-2.63,3.58,17.5,17.5,0,0,1,1.77-4.08A18.05,18.05,0,0,1,389.27,180.22Z" style="fill:#263238"></path><path d="M382.79,173.49a17.72,17.72,0,0,1-3.57,2.64,17,17,0,0,1-4.07,1.78,19.83,19.83,0,0,1,7.64-4.42Z" style="fill:#263238"></path><path d="M380.54,164.42a17.93,17.93,0,0,1-4.41.5,17.45,17.45,0,0,1-4.41-.49,17.47,17.47,0,0,1,4.41-.51A17.93,17.93,0,0,1,380.54,164.42Z" style="fill:#263238"></path><path d="M383.12,155.44a17.61,17.61,0,0,1-4.07-1.77,18.05,18.05,0,0,1-3.57-2.63,17.4,17.4,0,0,1,4.07,1.76A17.17,17.17,0,0,1,383.12,155.44Z" style="fill:#263238"></path><path d="M389.86,149a17.38,17.38,0,0,1-2.64-3.56,17,17,0,0,1-1.78-4.07,17.17,17.17,0,0,1,2.64,3.57A17.8,17.8,0,0,1,389.86,149Z" style="fill:#263238"></path><rect x="432.93" y="177.18" width="180.55" height="231.76" style="fill:#ebebeb"></rect><path d="M613.47,408.94l-180.54.32h-.32v-.32l-.17-231.76v-.49h.49l180.54.11h.38v.38Zm0,0-.37-231.76.37.37-180.54.12.49-.49-.18,231.76-.31-.31Z" style="fill:#dbdbdb"></path><polygon points="452.68 226.71 523.2 226.53 593.72 226.71 523.2 226.89 452.68 226.71" style="fill:#c7c7c7"></polygon><polygon points="452.68 232.46 523.2 232.28 593.72 232.46 523.2 232.64 452.68 232.46" style="fill:#c7c7c7"></polygon><polygon points="452.68 238.22 523.2 238.04 593.72 238.22 523.2 238.39 452.68 238.22" style="fill:#c7c7c7"></polygon><polygon points="452.68 243.97 523.2 243.79 593.72 243.97 523.2 244.15 452.68 243.97" style="fill:#c7c7c7"></polygon><polygon points="452.68 249.72 523.2 249.54 593.72 249.72 523.2 249.9 452.68 249.72" style="fill:#c7c7c7"></polygon><polygon points="452.68 255.47 523.2 255.29 593.72 255.47 523.2 255.65 452.68 255.47" style="fill:#c7c7c7"></polygon><polygon points="452.68 261.22 523.2 261.04 593.72 261.22 523.2 261.4 452.68 261.22" style="fill:#c7c7c7"></polygon><polygon points="452.68 266.97 523.2 266.8 593.72 266.97 523.2 267.15 452.68 266.97" style="fill:#c7c7c7"></polygon><polygon points="452.68 272.73 523.2 272.55 593.72 272.73 523.2 272.9 452.68 272.73" style="fill:#c7c7c7"></polygon><polygon points="452.68 278.48 523.2 278.3 593.72 278.48 523.2 278.65 452.68 278.48" style="fill:#c7c7c7"></polygon><polygon points="452.68 284.23 523.2 284.05 593.72 284.23 523.2 284.41 452.68 284.23" style="fill:#c7c7c7"></polygon><polygon points="452.68 289.98 523.2 289.8 593.72 289.98 523.2 290.16 452.68 289.98" style="fill:#c7c7c7"></polygon><polygon points="452.68 295.73 523.2 295.55 593.72 295.73 523.2 295.91 452.68 295.73" style="fill:#c7c7c7"></polygon><polygon points="452.68 301.48 523.2 301.31 593.72 301.48 523.2 301.66 452.68 301.48" style="fill:#c7c7c7"></polygon><polygon points="452.68 307.23 523.2 307.06 593.72 307.23 523.2 307.41 452.68 307.23" style="fill:#c7c7c7"></polygon><rect x="467.59" y="289.8" width="10.7" height="24.14" style="fill:#4B7FF3"></rect><rect x="487.43" y="276.93" width="10.7" height="37.01" style="fill:#4B7FF3"></rect><rect x="507.27" y="262.51" width="10.7" height="51.43" style="fill:#4B7FF3"></rect><rect x="527.12" y="256.32" width="10.7" height="57.62" style="fill:#4B7FF3"></rect><rect x="546.96" y="245.29" width="10.7" height="68.65" style="fill:#4B7FF3"></rect><rect x="566.8" y="234.39" width="10.7" height="79.55" style="fill:#4B7FF3"></rect><path d="M456.5,222.68l.28,22.81.19,22.82c.13,15.21.17,30.42.2,45.63l-.67-.66,34.31,0,34.3.08,34.31.22,34.3.39-34.3.39-34.31.22-34.3.08-34.31,0h-.66v-.66c0-15.21.06-30.42.19-45.63l.2-22.82Z" style="fill:#c7c7c7"></path><rect x="467.59" y="318.76" width="10.7" height="0.97" style="fill:#c7c7c7"></rect><rect x="487.43" y="318.76" width="10.7" height="0.97" style="fill:#c7c7c7"></rect><rect x="507.27" y="318.76" width="10.7" height="0.97" style="fill:#c7c7c7"></rect><rect x="527.12" y="318.76" width="10.7" height="0.97" style="fill:#c7c7c7"></rect><rect x="546.96" y="318.76" width="10.7" height="0.97" style="fill:#c7c7c7"></rect><rect x="566.8" y="318.76" width="10.7" height="0.97" style="fill:#c7c7c7"></rect><path d="M468.8,292.85a129.4,129.4,0,0,0,15.62-1.19,153.52,153.52,0,0,0,15.39-2.77,133.15,133.15,0,0,0,29.39-10.35,104.57,104.57,0,0,0,25.67-17.49l1.45-1.31,1.37-1.39,2.73-2.79c1.68-2,3.49-3.86,5-6a106.41,106.41,0,0,0,8.76-13l.09,0a93.32,93.32,0,0,1-18.59,25.27,92,92,0,0,1-12.22,10,104.32,104.32,0,0,1-13.61,8,133,133,0,0,1-61.07,13Z" style="fill:#263238"></path><polygon points="577.23 244.06 575.75 244.43 573.93 237.13 566.78 239.48 566.31 238.03 575.01 235.17 577.23 244.06" style="fill:#263238"></polygon><rect x="449.66" y="349.82" width="147.08" height="5.95" transform="translate(1046.4 705.6) rotate(180)" style="fill:#dbdbdb"></rect><rect x="449.66" y="364.84" width="82.8" height="5.95" transform="translate(982.13 735.64) rotate(180)" style="fill:#dbdbdb"></rect><rect x="481.8" y="202.79" width="82.8" height="5.95" transform="translate(1046.4 411.53) rotate(180)" style="fill:#dbdbdb"></rect><polygon points="579.14 396.54 398.59 396.45 398.71 164.69 532.76 164.76 579.23 208.94 579.14 396.54" style="fill:#4B7FF3"></polygon><polygon points="579.14 396.54 398.59 396.45 398.71 164.69 532.76 164.76 579.23 208.94 579.14 396.54" style="fill:#fff;opacity:0.6000000000000001"></polygon><polygon points="532.76 164.76 579.23 208.94 532.74 208.92 532.76 164.76" style="fill:#4B7FF3"></polygon><polygon points="532.76 164.76 579.23 208.94 532.74 208.92 532.76 164.76" style="fill:#fff;opacity:0.4"></polygon><rect x="416.3" y="203.61" width="100.38" height="5.95" transform="matrix(-1, 0, 0, -1, 932.88, 413.41)" style="fill:#fff"></rect><rect x="416.29" y="218.63" width="100.38" height="5.95" transform="translate(932.86 443.45) rotate(-179.97)" style="fill:#fff"></rect><rect x="416.29" y="233.65" width="100.38" height="5.95" transform="translate(932.83 473.49) rotate(-179.97)" style="fill:#fff"></rect><rect x="416.28" y="248.69" width="147.08" height="5.95" transform="translate(979.5 503.57) rotate(-179.97)" style="fill:#fff"></rect><rect x="416.27" y="263.71" width="147.08" height="5.95" transform="translate(979.48 533.62) rotate(-179.97)" style="fill:#fff"></rect><rect x="416.26" y="278.73" width="147.08" height="5.95" transform="translate(979.46 563.66) rotate(-179.97)" style="fill:#fff"></rect><rect x="416.26" y="293.75" width="147.08" height="5.95" transform="translate(979.44 593.7) rotate(-179.97)" style="fill:#fff"></rect><rect x="416.25" y="308.77" width="147.08" height="5.95" transform="translate(979.41 623.74) rotate(-179.97)" style="fill:#fff"></rect><rect x="416.24" y="323.79" width="147.08" height="5.95" transform="translate(979.39 653.79) rotate(-179.97)" style="fill:#fff"></rect><rect x="416.23" y="338.81" width="147.08" height="5.95" transform="translate(979.37 683.83) rotate(-179.97)" style="fill:#fff"></rect><rect x="416.22" y="353.84" width="147.08" height="5.95" transform="translate(979.34 713.87) rotate(-179.97)" style="fill:#fff"></rect><rect x="416.22" y="368.86" width="147.08" height="5.95" transform="translate(979.32 743.91) rotate(-179.97)" style="fill:#fff"></rect><polygon points="356.06 444.2 633.66 444.2 652.76 279.61 375.16 279.61 356.06 444.2" style="fill:#4B7FF3"></polygon><polygon points="567.25 262.56 654.74 262.56 652.76 279.61 560.25 279.61 567.25 262.56" style="fill:#4B7FF3"></polygon></g><g id="freepik--Character--inject-17"><path d="M164.86,131.94c-1.72,9.88-5.44,21.44-2.43,31.39,2.37,7.79,8.68,13.63,15.46,17.73,14.92,9,36.93,12.75,50-1.53,5.22-5.71,7.64-18.67.92-24.38-3.46-2.93-7.87-4.07-12-5.76a18.3,18.3,0,0,1-11-11.45c-3.78-10.83-1.81-18.17-1.38-29.31a7.93,7.93,0,0,0-2-6.12,14.07,14.07,0,0,0-6.07-4.46,14,14,0,0,0-6.55-2c-4.95-.12-10.21,3.79-14.34,6.11s-6.32,5.09-7.22,9.85C167.07,118.66,166,125.31,164.86,131.94Z" style="fill:#263238"></path><path d="M163,136.46c2.16-9,4.48-17.84,6.75-26.76,0-.06.1,0,.09,0-1.65,7.39-3.21,14.8-5,22.18-1.72,7.22-4,14.53-5.06,21.89-2.42,16.5,13.73,25.4,27.9,26.39.65,0,.5,1.06-.15,1-12.41-1.26-26.64-7.37-28.66-21.29C157.84,152.27,161.27,143.78,163,136.46Z" style="fill:#263238"></path><path d="M203.77,107.66a.14.14,0,0,1,.28,0c-.75,9.15-2.48,19.75,1.69,28.34a23.29,23.29,0,0,0,9.43,10.05c3.24,1.83,6.85,2.41,10.33,3.57,13.62,4.52,11.35,23.4.26,29.46-.23.13-.46-.27-.23-.41,7.87-4.78,11.54-14.83,6.69-23.16-3.9-6.7-13.13-5.91-19.08-10C200.8,137,201.81,120.84,203.77,107.66Z" style="fill:#263238"></path><path d="M254.2,440.58c-2.23.72-65.59-.1-68-1.67-.92-.58-1.34-9.82-1.53-21v-.35c0-2.3-.07-4.67-.07-7.08,0-.33,0-.66,0-1-.09-16.13.17-32.87.17-32.87l42.39.42-1.28,32.57,0,1.29-.25,6.74,0,.69s24.12,11.16,26.57,13.16S256.42,439.87,254.2,440.58Z" style="fill: rgb(247, 169, 160);"></path><path d="M235.16,422.66c-.17,0-.26-.09-.27-.14Z" style="fill:#4B7FF3"></path><path d="M254.19,440.58c-2.22.72-65.58-.1-68-1.67-.81-.51-1.24-7.87-1.45-17.35,11.61,2.42,56.61,11.52,57.84,7.68.49-1.52-3.36-4.13-5.8-5.61,6.65,3.17,14,6.8,15.32,7.86C254.54,433.48,256.42,439.87,254.19,440.58Z" style="fill:#4B7FF3"></path><path d="M171.76,194.08s9.52,107.08,11.07,115.25c.36,1.86.58,12,.73,25,.33,28.38.13,79.58.13,79.58h44.67s-1.33-88.7-3.31-105-14.61-114.79-14.61-114.79Z" style="fill:#37474f"></path><path d="M226.34,406.11c-7-.14-5-.2-11.94-.27-3.41,0-25.83-.22-29,.3a.08.08,0,0,0,0,.15c3.18.52,25.6.33,29,.3,7-.07,5-.13,11.94-.27A.11.11,0,0,0,226.34,406.11Z" style="fill:#263238"></path><path d="M192.18,355.41,192,336c0-6.27,0-12.55-.33-18.82-.61-12.7-3.18-25.18-5-37.73s-3.35-25.15-4.74-37.77c-1.55-14.15-2.92-28.32-4.38-42.48,0-.1-.16-.1-.15,0,2.11,25.29,4.46,50.57,8,75.7q1.31,9.38,2.85,18.72c1,6.3,2.08,12.61,2.58,19s.56,12.5.63,18.75q.09,9.72.19,19.43c.14,14.38.28,36.51.42,50.9,0,.27.43.26.43,0C192.37,388.82,192.27,368.24,192.18,355.41Z" style="fill:#263238"></path><path d="M162.35,194.08s18.93,107.08,20.48,115.25c.36,1.86.58,12,.73,25v0l21.28-140.28Z" style="fill:#263238"></path><path d="M148.56,444.18c-2.3-.36-58.47-29.71-59.89-32.19-.56-.93,3.24-9.36,8.12-19.42l.16-.32c1-2.07,21.06-35.89,21.06-35.89l34.54,20.28-19.16,34.15-.33.6s16.47,20.86,17.75,23.74S150.87,444.56,148.56,444.18Z" style="fill: rgb(247, 169, 160);"></path><path d="M148.56,444.18c-2.31-.36-58.46-29.71-59.89-32.19-.48-.79,2.22-7.07,6.06-15.14,8,6.09,46.92,35.28,49.76,32.25.6-.65.15-2.16-.64-3.78,3.41,4.5,6.44,8.63,7,9.81C152.08,438,150.87,444.55,148.56,444.18Z" style="fill:#4B7FF3"></path><path d="M138.36,409.54,97.43,384.25s47.35-67.76,47.58-73.78c.33-9,4.62-45.88,8.23-75.78,0,0-6.84-16.19,5.95-40.64h51.29s-3.44,23.27-9.33,38a68.28,68.28,0,0,0-11.4,5.21s-5.1,66.67-5.29,75C184.08,328.7,138.36,409.54,138.36,409.54Z" style="fill:#37474f"></path><path d="M140.87,400.09c-5.91-3.7-4.16-2.72-10.11-6.36-2.91-1.78-22-13.46-25-14.64a.07.07,0,0,0-.07.12c2.46,2.09,21.8,13.43,24.74,15.15,6,3.53,4.33,2.45,10.38,5.9A.1.1,0,0,0,140.87,400.09Z" style="fill:#263238"></path><path d="M203.1,231.06a84.74,84.74,0,0,0-13.35,6.22.15.15,0,0,0,.13.27c4.49-1.93,9.08-3.78,13.46-6A.3.3,0,0,0,203.1,231.06Z" style="fill:#263238"></path><path d="M196.82,223.63c.44-2.68.8-5.36,1-8.07a73.66,73.66,0,0,0-.16-15.14.13.13,0,0,0-.26,0,139.18,139.18,0,0,1-1.23,20.91c-.5,3.32-2.18,8.34,1.31,8.85s5.84-7.87,6.27-10.17a76.42,76.42,0,0,0,.75-19.81c0-.16-.29-.19-.28,0,0,5.34-.31,10-.76,15-.21,2.31-2.07,15.12-6.09,14.18-.67-.15-1-.82-1.12-1.83a16.1,16.1,0,0,1,.54-3.93" style="fill:#263238"></path><path d="M197.51,229.74a22.33,22.33,0,0,0-.9,2.65,5.86,5.86,0,0,0-.38,2.18.16.16,0,0,0,.28.06,7.6,7.6,0,0,0,.93-2.12c.31-.82.63-1.64.91-2.47A.45.45,0,0,0,197.51,229.74Z" style="fill:#263238"></path><path d="M165.22,197.28a46.89,46.89,0,0,0-3.85,8.44,51.73,51.73,0,0,0-2.28,9c-.29,1.52-.39,3.06-.56,4.59s-.19,3.09-.1,4.63a48.74,48.74,0,0,0,1.07,9.17v.1q-1.77,19.4-3.68,38.78T152,310.76l-.13,1.21-.06.61a1.74,1.74,0,0,1-.13.65,21.33,21.33,0,0,1-1.17,2.25c-.82,1.41-1.67,2.8-2.52,4.18q-2.55,4.15-5.17,8.26c-3.48,5.48-7,10.92-10.57,16.36-7.07,10.89-14.27,21.7-21.48,32.5l20.93-32.86,10.39-16.46q2.6-4.12,5.14-8.26c.84-1.39,1.68-2.78,2.49-4.18.38-.68.82-1.44,1.08-2a1.47,1.47,0,0,0,.1-.53l.06-.61.12-1.21q1.84-19.38,3.82-38.75t4-38.73v.09a48.44,48.44,0,0,1-1-9.29c-.07-1.56.08-3.12.16-4.67s.33-3.1.66-4.63a52.6,52.6,0,0,1,2.47-9A47.86,47.86,0,0,1,165.22,197.28Z" style="fill:#263238"></path><path d="M190,147.7c7.63,4.11,43,15,55.52,14.5,11.71-.43,37.4-14.25,38.61-18,1.16-3.55-5.37-25.42-9.21-24.31s-26.71,17.68-31.74,18.35c-3,.39-31.25-.53-45.73,0C184.3,138.7,179.44,142,190,147.7Z" style="fill: rgb(247, 169, 160);"></path><path d="M211,157.72l11.41-21s-26.27-.41-34,1.65c-8.73,2.32-5.64,6.28,1.75,10.65S211,157.72,211,157.72Z" style="fill:#4B7FF3"></path><path d="M195.31,138.22a1.8,1.8,0,1,1-3.6,0,1.33,1.33,0,0,1,.07-.45c1-.14,2.14-.26,3.33-.36A1.7,1.7,0,0,1,195.31,138.22Zm10.76-1.37h0a1.8,1.8,0,1,0,3,1.37,1.76,1.76,0,0,0-.72-1.43h0Zm15.86-.12h-2a1.78,1.78,0,0,0-.82,1.5,1.8,1.8,0,0,0,1.5,1.78l1.62-3A1.19,1.19,0,0,0,221.93,136.73Zm-34.74,10.44c.28.19.54.39.84.56A1.69,1.69,0,0,0,187.19,147.17Zm13.17-.09a1.8,1.8,0,1,0,1.81,1.8A1.81,1.81,0,0,0,200.36,147.08Zm13.71,0a1.8,1.8,0,1,0,1.8,1.8A1.8,1.8,0,0,0,214.07,147.08Z" style="fill:#fff"></path><path d="M217.06,137.66c-.51.67-4.17,7.15-4.93,8.58s-3.95,7.23-4.62,8.77c0,.06.06.12.1.06.94-1.38,4.17-7.23,5-8.66s4.29-7.94,4.57-8.7C217.18,137.64,217.09,137.62,217.06,137.66Z" style="fill:#263238"></path><path d="M214.54,151.18,211,157.72s-13.48-4.31-20.87-8.68c-6.16-3.65-9.33-7-5.16-9.36Z" style="opacity:0.1"></path><path d="M209.51,184.68l1.55,12.09-52.41-1.65s2.65-38.63,17.75-53.2c7.56-7.28,15.85-6.21,20.85-.51,1.26,1.45,16.12,20.86,17.32,29.06C215.62,177.7,209.51,184.68,209.51,184.68Z" style="fill:#4B7FF3"></path><path d="M181.61,138.22a1.81,1.81,0,0,1-1.8,1.81,1.7,1.7,0,0,1-.86-.23A16.45,16.45,0,0,1,181.61,138.22Zm10.22-.63a1.68,1.68,0,0,0-.12.63,1.81,1.81,0,0,0,1.8,1.81,1.74,1.74,0,0,0,1.44-.74A12.65,12.65,0,0,0,191.83,137.59Zm-25,19.94c-.45,1.11-.87,2.24-1.26,3.37a1.56,1.56,0,0,0,.57.1,1.8,1.8,0,0,0,1.8-1.81A1.78,1.78,0,0,0,166.79,157.53Zm13-.14a1.81,1.81,0,1,0,1.8,1.8A1.81,1.81,0,0,0,179.81,157.39Zm13.7,0a1.81,1.81,0,1,0,1.8,1.8A1.81,1.81,0,0,0,193.51,157.39Zm13.71,0a1.81,1.81,0,1,0,1.8,1.8A1.8,1.8,0,0,0,207.22,157.39ZM173,147.08a1.72,1.72,0,0,0-1,.31l0,0c-.26.38-.5.75-.74,1.15a0,0,0,0,0,0,0,1.53,1.53,0,0,0,0,.3,1.8,1.8,0,1,0,1.8-1.8Zm13.71,0a1.8,1.8,0,1,0,1.8,1.8A1.8,1.8,0,0,0,186.66,147.08Zm13.7,0a1.8,1.8,0,1,0,1.81,1.8A1.81,1.81,0,0,0,200.36,147.08ZM166.1,178.36a1.81,1.81,0,1,0,1.8,1.81A1.81,1.81,0,0,0,166.1,178.36Zm13.71,0a1.81,1.81,0,1,0,1.8,1.81A1.81,1.81,0,0,0,179.81,178.36Zm13.7,0a1.81,1.81,0,1,0,1.8,1.81A1.81,1.81,0,0,0,193.51,178.36Zm13.71,0a1.81,1.81,0,1,0,1.8,1.81A1.8,1.8,0,0,0,207.22,178.36ZM173,168.05a1.8,1.8,0,1,0,1.81,1.8A1.81,1.81,0,0,0,173,168.05Zm13.71,0a1.8,1.8,0,1,0,1.8,1.8A1.8,1.8,0,0,0,186.66,168.05Zm13.7,0a1.8,1.8,0,1,0,1.81,1.8A1.81,1.81,0,0,0,200.36,168.05Zm14.21,2.42a14.29,14.29,0,0,0-.62-2.41,1.8,1.8,0,0,0,.12,3.59,1.73,1.73,0,0,0,.6-.11C214.65,171.19,214.62,170.83,214.57,170.47ZM159.28,189c-.18,1.4-.31,2.6-.41,3.56h0a1.58,1.58,0,0,0,.38,0,1.81,1.81,0,0,0,0-3.61ZM173,189a1.81,1.81,0,1,0,1.81,1.8A1.81,1.81,0,0,0,173,189Zm13.71,0a1.81,1.81,0,1,0,1.8,1.8A1.8,1.8,0,0,0,186.66,189Zm13.7,0a1.81,1.81,0,1,0,1.81,1.8A1.81,1.81,0,0,0,200.36,189Z" style="fill:#fff"></path><path d="M200.82,180.58a56.9,56.9,0,0,0-8.32,1.19c-1.36.32-2.69.7-4,1.11-.66.2-1.33.38-2,.56a8.71,8.71,0,0,1-2.15.36.05.05,0,0,0,0,.1,14.17,14.17,0,0,0,2.06,0,16.53,16.53,0,0,0,2-.33c1.38-.31,2.75-.69,4.13-1,2.77-.65,5.55-1.31,8.37-1.76C201,180.79,201,180.57,200.82,180.58Z" style="fill:#263238"></path><path d="M207.68,183.2a61.73,61.73,0,0,0-6.93-.48c-1.16,0-2.31.05-3.46.14q-.82.06-1.65.15c-.61.06-1.21.21-1.81.27-.06,0-.07.1,0,.1.57,0,1.15,0,1.73,0h5.19c2.31,0,4.61,0,6.93,0C207.8,183.39,207.79,183.21,207.68,183.2Z" style="fill:#263238"></path><path d="M380.58,144.63q-81-18.94-160.31-37.17c-19.88,65.18-14.52,141-42.4,202.8q81,18.94,160.3,37.17C358.06,282.25,352.7,206.46,380.58,144.63Z" style="fill:#ebebeb"></path><path d="M202.94,285.33q44,10.1,87.6,20c.39-1.72.78-3.45,1.15-5.18q-43.51-9.89-87.36-19.93C203.88,282,203.42,283.65,202.94,285.33Z" style="fill:#dbdbdb"></path><path d="M206.29,272.44q43.67,10,87,19.79.49-2.62,1-5.26-43.28-9.78-86.82-19.69C207.09,269,206.7,270.73,206.29,272.44Z" style="fill:#dbdbdb"></path><path d="M209.14,259.34q43.4,9.86,86.54,19.59.44-2.65.86-5.31-43.1-9.72-86.39-19.52Q209.65,256.73,209.14,259.34Z" style="fill:#dbdbdb"></path><path d="M211.57,246.07q63.29,14.3,126.18,28.43.38-2.69.73-5.36-62.89-14.13-126-28.37C212.16,242.54,211.87,244.3,211.57,246.07Z" style="fill:#dbdbdb"></path><path d="M213.7,232.66q63,14.21,125.86,28.3l.69-5.38q-62.83-14.1-125.78-28.26Q214.1,230,213.7,232.66Z" style="fill:#dbdbdb"></path><path d="M215.6,219.16q62.91,14.15,125.71,28.23.35-2.69.7-5.37L216.32,213.8Z" style="fill:#dbdbdb"></path><path d="M217.38,205.61,343.1,233.85c.24-1.79.49-3.57.74-5.36L218.08,200.24C217.85,202,217.61,203.82,217.38,205.61Z" style="fill:#dbdbdb"></path><path d="M219.14,192.05Q282,206.17,345,220.36q.41-2.67.82-5.32-63.17-14.25-126-28.36Q219.49,189.37,219.14,192.05Z" style="fill:#dbdbdb"></path><path d="M221,178.52q63,14.14,126.23,28.45.46-2.64.94-5.27-63.44-14.35-126.41-28.53Q221.33,175.84,221,178.52Z" style="fill:#dbdbdb"></path><path d="M222.94,165.05q63.13,14.23,126.74,28.67.52-2.61,1.1-5.21Q287,174,223.8,159.74C223.5,161.51,223.22,163.28,222.94,165.05Z" style="fill:#dbdbdb"></path><path d="M225.19,151.69q63.39,14.35,127.4,28.95.63-2.56,1.29-5.12-64.22-14.7-127.71-29.08C225.83,148.19,225.51,149.94,225.19,151.69Z" style="fill:#dbdbdb"></path><path d="M227.79,138.49Q291.52,153,356,167.78c.5-1.68,1-3.35,1.53-5q-64.76-14.91-128.62-29.46C228.54,135,228.16,136.75,227.79,138.49Z" style="fill:#dbdbdb"></path><path d="M185.21,141.12c.27,1,5.41,7.57,10.12,7.21,1.53-.13,1.24-8.53,1.24-8.53l.12-.62,1.68-8.76L188,124.18l-1.5-.82s-.3,2.42-.65,5.45c0,.14,0,.28-.05.43s0,.33-.06.49c-.06.45-.12.91-.16,1.37s-.08.69-.1,1.06-.07.73-.1,1.1A57.16,57.16,0,0,0,185.21,141.12Z" style="fill: rgb(247, 169, 160);"></path><path d="M198.38,130.42l-1.62,8.41a19,19,0,0,1-11-9.17l.1-.85c.35-3,.65-5.45.65-5.45l1.5.82Z" style="fill:#263238"></path><path d="M209,116.22c2.18,15.49-6.86,18.54-10.2,19-3,.42-13.41,1.47-17.17-13.72s2.75-21.09,9.64-22.42S206.87,100.73,209,116.22Z" style="fill: rgb(247, 169, 160);"></path><path d="M206.41,114.13a9.47,9.47,0,0,1-1.07-.13,1.78,1.78,0,0,1-1.07-.35.54.54,0,0,1-.05-.67,1.36,1.36,0,0,1,1.32-.44,2,2,0,0,1,1.33.61A.59.59,0,0,1,206.41,114.13Z" style="fill:#263238"></path><path d="M195.84,114.73a10.25,10.25,0,0,0,1-.31,1.71,1.71,0,0,0,1-.52.54.54,0,0,0-.06-.67,1.37,1.37,0,0,0-1.38-.21,2,2,0,0,0-1.21.82A.59.59,0,0,0,195.84,114.73Z" style="fill:#263238"></path><path d="M198.33,117.64s-.08,0-.07.1c.15,1.05.14,2.29-.78,2.74,0,0,0,.07,0,.06C198.64,120.25,198.64,118.61,198.33,117.64Z" style="fill:#263238"></path><path d="M197.26,116.63c-1.71.06-1.48,3.49.11,3.44S198.7,116.59,197.26,116.63Z" style="fill:#263238"></path><path d="M196.6,116.86c-.28.21-.55.58-.91.64s-.76-.27-1.05-.6c0,0-.06,0-.06,0,0,.65.33,1.31,1,1.36s1.07-.57,1.18-1.24C196.84,117,196.72,116.77,196.6,116.86Z" style="fill:#263238"></path><path d="M204.27,117.09s.09,0,.09.09c0,1.06.29,2.27,1.28,2.55,0,0,0,.06,0,.06C204.45,119.72,204.15,118.11,204.27,117.09Z" style="fill:#263238"></path><path d="M205.13,115.91c1.7-.27,2.11,3.14.54,3.39S203.71,116.13,205.13,115.91Z" style="fill:#263238"></path><path d="M205.87,116.05c.29.14.6.44.92.42s.61-.42.81-.8c0,0,.05,0,.06,0,.09.65,0,1.35-.65,1.56s-1-.33-1.28-1C205.68,116.18,205.75,116,205.87,116.05Z" style="fill:#263238"></path><path d="M199.71,126.31c.29.21.59.51,1,.49a2.81,2.81,0,0,0,1.1-.43s.07,0,.05,0a1.45,1.45,0,0,1-1.26.77,1.15,1.15,0,0,1-1-.82C199.59,126.31,199.67,126.28,199.71,126.31Z" style="fill:#263238"></path><path d="M199,123.52a3.56,3.56,0,0,0,2.58,1.2,4.9,4.9,0,0,0,1.27-.14l.24-.07.22-.07a.24.24,0,0,0,.17-.26h0a.29.29,0,0,0,0-.1h0V124c-.11-.8-.37-2-.37-2,.31.1,1.89.53,1.8.12a53.62,53.62,0,0,0-3-10.39.1.1,0,0,0-.19.05c.59,3.3,1.74,6.46,2.38,9.76a6.14,6.14,0,0,0-1.73-.24c-.11,0,.55,2.29.57,2.66v0a4.89,4.89,0,0,1-3.81-.56C199,123.37,198.91,123.45,199,123.52Z" style="fill:#263238"></path><path d="M181.82,120.64c3.71-.16,3.38-6,3.38-6s4.18-.6,4.14-7.39a10.27,10.27,0,0,0,8,4.53c1.22.12-3-2.8-3-2.8s5.06,4.14,14,2c.63-.15-1.21-9.56-8.42-12.43s-13.46-.72-17.6,4a8.54,8.54,0,0,0-4.18,6.89C177.75,114.34,180.38,120.7,181.82,120.64Z" style="fill:#263238"></path><path d="M184.29,122.36s-3.66-4.7-5.81-3.37.79,8.27,3.44,9.1a2.65,2.65,0,0,0,3.46-1.61Z" style="fill: rgb(247, 169, 160);"></path><path d="M179.37,121a0,0,0,0,0,0,.07c1.86.64,2.91,2.28,3.67,4a1.46,1.46,0,0,0-2.2-.29c-.05,0,0,.11,0,.1a1.63,1.63,0,0,1,1.82.47,8.78,8.78,0,0,1,.94,1.4c.09.16.38.06.31-.13l0,0C183.85,124.22,181.88,121.06,179.37,121Z" style="fill:#263238"></path><path d="M183.67,127.28a.77.77,0,1,1-.82-.72A.77.77,0,0,1,183.67,127.28Z" style="fill:#fff"></path><polygon points="186.08 117.01 179.53 116.98 179.67 115.25 186.14 116.03 186.08 117.01" style="fill:#4B7FF3"></polygon><polygon points="186.36 115.35 179.91 114.16 180.36 112.48 186.59 114.4 186.36 115.35" style="fill:#4B7FF3"></polygon><path d="M172.34,150.38c-3,7.75-14.21,44.39-9.38,57.85,3,8.26,32.21,24.54,39.61,28.17,3.23,1.58,15-19.23,13.57-22.79S186.82,196.32,185,194.1c0,0-1-26.12-1.56-40C182.9,140.94,178,135.89,172.34,150.38Z" style="fill: rgb(247, 169, 160);"></path><path d="M234.83,225.58c4.13,1.77,11,.68,10.68,4-.32,3-5.17,3.25-5.17,3.25s5.57,1.44,4.33,4.52-6.62,2.32-6.62,2.32,4.69,1,3.23,4-6.16,3.18-6.16,3.18,1.15,1.2-.83,2.85c-2.84,2.36-10.63.69-14.5-1.15s-16.65-11.42-18.58-12.92l11.58-24.9s8.38.09,12.62.66,17.7,6.32,16.5,9.76-10.63-.79-13.17-1.32-3.09,0-2.13,1.1C227.24,221.64,233,224.8,234.83,225.58Z" style="fill: rgb(247, 169, 160);"></path><path d="M240.11,232.73c-6.79-.08-9.74-1.28-15.35-4.91-.11-.07-.24.08-.14.16,5.17,4.05,8.66,6.1,15.5,5.08C240.46,233,240.43,232.73,240.11,232.73Z" style="fill:#263238"></path><path d="M238.34,239.61c-7.05-.69-10.27-2-16.42-5.34a.09.09,0,0,0-.09.15c5.76,3.81,9.29,5.77,16.41,5.54C238.57,240,238.66,239.64,238.34,239.61Z" style="fill:#263238"></path><path d="M235.05,246.76c-6.76-1.16-10.35-2.41-15.91-6.44a.12.12,0,0,0-.16.19c5.26,4.67,9.73,6.26,16,6.46C235.43,247,235.48,246.84,235.05,246.76Z" style="fill:#263238"></path><path d="M186,172.47,162.57,177s7.6-25.15,11.92-31.92c4.87-7.61,7.7-3.46,9.61,4.91S186,172.47,186,172.47Z" style="fill:#4B7FF3"></path><path d="M181.61,159.19a1.81,1.81,0,1,1-1.8-1.8A1.81,1.81,0,0,1,181.61,159.19Zm-8.28-12.06c-.47.93-1,2-1.46,3.18a1.72,1.72,0,0,0,1.08.37,1.79,1.79,0,0,0,1.8-1.8A1.77,1.77,0,0,0,173.33,147.13ZM173,168.05a1.8,1.8,0,1,0,1.81,1.8A1.81,1.81,0,0,0,173,168.05Zm13,.15a1.8,1.8,0,0,0,.07,3.33C186,170.78,186,169.63,186,168.2Z" style="fill:#fff"></path><path d="M165.07,172.16c.79-.28,8.08-1.8,9.67-2.09s8.09-1.56,9.76-1.73a.06.06,0,1,1,0,.11c-1.6.48-8.14,1.78-9.76,2.11s-8.86,1.67-9.68,1.71C165,172.27,165,172.18,165.07,172.16Z" style="fill:#263238"></path><path d="M184.17,172.81c.7-.19,1.79-.43,1.79-.43,0-2.78-1.12-16.8-1.34-20.19,0-.06.08-.06.08,0q.38,2.87.7,5.72c0-.24,0-.48,0-.72.05-.87.12-1.73.14-2.59,0-.08.11-.09.11,0a19,19,0,0,1,0,2.61c-.05.62-.13,1.22-.22,1.83.12,1.1.25,2.19.34,3.29.28,3.38.69,6.87.71,10.26a12.87,12.87,0,0,1-2.39.4C184.08,173,184.07,172.84,184.17,172.81Z" style="fill:#263238"></path><path d="M164.84,176.52c-.75.22-1.49.4-2.24.6l-.24.06,0-.26a75.82,75.82,0,0,1,2.52-9.14c.51-1.5,1-3,1.65-4.45s1.22-2.91,1.92-4.33c-.45,1.52-.94,3-1.42,4.51l-1.46,4.5-2.9,9-.18-.2C163.3,176.71,164.07,176.6,164.84,176.52Z" style="fill:#263238"></path><path d="M166.41,164.59a4,4,0,0,1-.16-1.94,5.21,5.21,0,0,1,.21-1,4.22,4.22,0,0,1,.41-.89,12,12,0,0,1-.13,1.91C166.65,163.34,166.56,164,166.41,164.59Z" style="fill:#263238"></path><path d="M278.47,109a4,4,0,0,1,4.12,2.32s1.81-3.37,5-3.14c1.63.12,2.87,2.83,2.87,2.83s1.57-2.63,4.37-2.25c2.24.3,3.15,3,3.15,3s2.68-1.83,4.86-.79c4.41,2.1,3.85,21.46-3.37,24.24-3.36,1.3-3-3.42-3-3.42s-2.2,6.65-6.19,6.63-3.12-6.11-3.12-6.11-2.19,6.42-6.33,6c-4.31-.45-2.38-6.4-2.38-6.4s-3,4.22-6.13,3.16c-5.11-1.74,2.13-10.85,1.24-15.13l-7.88-2S275,109.27,278.47,109Z" style="fill: rgb(247, 169, 160);"></path><path d="M298.16,112.08c0-.06.09-.08.1,0A33.58,33.58,0,0,1,296.49,132c-.08.2-.44.14-.39-.1A68.37,68.37,0,0,0,298.16,112.08Z" style="fill:#263238"></path><path d="M290.48,110.87c0-.07.12-.08.14,0,1.37,6.61.62,15-3.28,21.59-.13.23-.48.3-.34,0C289.26,127.91,290.84,117.12,290.48,110.87Z" style="fill:#263238"></path><path d="M278,132.21c3.49-6.46,4.56-13.39,4.63-20.67,0-.09.14-.08.16,0,.93,3.57.4,8.2-.32,11.77a19.28,19.28,0,0,1-4.25,9C278.16,132.44,278,132.35,278,132.21Z" style="fill:#263238"></path><path d="M296.31,132.09a13.91,13.91,0,0,1-1.81,3.79,6,6,0,0,1-3.36,2.61,3.63,3.63,0,0,1-2.23-.12,3,3,0,0,1-1.56-1.65,8.6,8.6,0,0,1-.35-4.32l.67.18a12.8,12.8,0,0,1-2.19,3.72,6.25,6.25,0,0,1-3.75,2.23,4.47,4.47,0,0,1-2.25-.27,2.9,2.9,0,0,1-1.57-1.67,7.26,7.26,0,0,1,.11-4.33l.42.23a10.89,10.89,0,0,1-1.53,1.43,7.51,7.51,0,0,1-1.8,1.05,4.26,4.26,0,0,1-2.06.29,3.41,3.41,0,0,1-1.82-.92,3.49,3.49,0,0,0,1.84.76,4,4,0,0,0,1.93-.4,9.42,9.42,0,0,0,3.06-2.52l.67-.8-.25,1a6.84,6.84,0,0,0,0,4,2.22,2.22,0,0,0,1.24,1.29,3.72,3.72,0,0,0,1.88.19,5.55,5.55,0,0,0,3.29-2,12.67,12.67,0,0,0,2.1-3.47l1.08-2.67-.41,2.85a8,8,0,0,0,.26,3.95,2.47,2.47,0,0,0,1.2,1.37A3.16,3.16,0,0,0,291,138a5.89,5.89,0,0,0,3.23-2.31A15.11,15.11,0,0,0,296.31,132.09Z" style="fill:#263238"></path><circle cx="313.54" cy="308.12" r="33.07" style="fill:#4B7FF3"></circle><rect x="310.15" y="287.69" width="6.79" height="40.85" style="fill:#fff"></rect><rect x="310.15" y="287.69" width="6.79" height="40.85" transform="translate(621.66 -5.42) rotate(90)" style="fill:#fff"></rect></g></svg>